# xmcd
#
# Track frame offsets: 
#        150
#        12440
#        28802
#        43804
#
# Disc length: 807 seconds
#
# Revision: 0
# Processed by: cddbd v1.5.2PL0 Copyright (c) Steve Scherf et al.
# Submitted via: ExactAudioCopy v1.0b4
#
DISCID=2e032504
DTITLE=Well Bad - Jackleen
DYEAR=2016
DGENRE=Blues
TTITLE0=Jackleen
TTITLE1=Rid Of It
TTITLE2=Sweet Incompletion
TTITLE3=Happy Worst Day
EXTD=
EXTT0=
EXTT1=
EXTT2=
EXTT3=
PLAYORDER=
